<?xml version="1.0" standalone="no"?>
<!DOCTYPE svg PUBLIC "-//W3C//DTD SVG 20010904//EN"
 "http://www.w3.org/TR/2001/REC-SVG-20010904/DTD/svg10.dtd">
<svg version="1.0" xmlns="http://www.w3.org/2000/svg"
 width="260.000000pt" height="260.000000pt" viewBox="0 0 260.000000 260.000000"
 preserveAspectRatio="xMidYMid meet">
<metadata>
Created by potrace 1.14, written by Peter Selinger 2001-2017
</metadata>
<g transform="translate(0.000000,260.000000) scale(0.100000,-0.100000)"
fill="#000000" stroke="none">
<path d="M1512 1795 c1 -45 -2 -87 -6 -93 -4 -6 4 -16 16 -22 22 -11 22 -10 4
4 -26 21 -7 20 23 -1 14 -9 21 -11 17 -5 -10 16 7 15 23 0 10 -11 11 -9 5 5
-5 15 -3 16 17 9 33 -11 89 -6 103 9 8 9 6 10 -9 5 -19 -6 -19 -5 -2 8 17 13
25 32 9 22 -8 -5 -7 30 2 71 3 13 0 25 -6 29 -6 4 -5 10 3 15 11 7 11 9 -1 9
-13 0 -13 1 0 10 10 7 -18 10 -91 9 l-107 -1 0 -83z"/>
<path d="M60 1693 c0 -7 -12 -9 -29 -7 l-29 5 0 -104 c0 -84 2 -104 14 -104 9
0 13 6 9 15 -4 11 -2 12 8 4 7 -6 26 -11 42 -11 17 0 41 -2 53 -5 17 -4 22 -1
19 8 -3 7 1 13 9 13 7 0 10 -5 7 -10 -4 -7 1 -8 13 -3 10 4 15 4 12 0 -4 -4
-3 -15 3 -25 5 -11 6 -19 1 -19 -4 0 -8 -9 -8 -19 0 -11 3 -18 7 -15 4 2 10
-3 13 -12 3 -8 2 -12 -4 -9 -15 9 -12 -78 3 -94 7 -9 7 -11 1 -8 -7 4 -14 0
-18 -8 -3 -8 -1 -15 4 -15 5 0 7 -6 5 -12 -9 -26 -12 -87 -4 -82 5 3 9 0 9 -5
0 -6 -5 -11 -10 -11 -7 0 -7 -6 -1 -19 6 -10 8 -21 4 -24 -3 -4 0 -13 7 -22
11 -13 10 -14 -5 -8 -15 5 -17 3 -11 -13 5 -10 8 -26 9 -34 0 -8 4 -21 10 -28
5 -7 7 -15 3 -19 -3 -3 -6 -1 -6 5 0 7 -5 12 -11 12 -5 0 -8 -4 -5 -8 10 -17
14 -62 6 -62 -5 0 -7 -7 -4 -15 4 -8 2 -15 -4 -15 -6 0 -13 6 -15 13 -4 9 -6
8 -6 -2 -1 -11 -4 -11 -18 0 -11 10 -14 10 -9 2 4 -8 2 -13 -6 -13 -8 0 -20 6
-27 13 -11 10 -13 10 -7 0 4 -8 2 -13 -6 -13 -8 0 -20 6 -27 13 -11 10 -12 9
-6 -2 6 -11 4 -13 -8 -8 -10 3 -17 2 -17 -4 0 -6 -5 -7 -10 -4 -6 4 -7 11 -4
17 4 7 2 8 -4 4 -8 -5 -12 -42 -12 -107 l0 -99 324 0 c209 0 327 4 331 10 4 6
11 8 16 5 5 -4 9 -1 9 5 0 6 5 8 11 5 6 -4 17 1 25 11 9 11 12 13 9 6 -6 -11
-3 -11 16 0 13 7 28 19 32 26 5 7 11 11 15 8 4 -2 13 2 20 10 7 8 10 14 6 14
-4 0 2 8 13 18 11 9 24 32 27 50 5 21 12 30 19 25 7 -4 6 1 -2 10 -12 15 -11
20 5 39 11 12 14 18 8 15 -7 -4 -14 0 -17 7 -3 8 -1 16 4 18 6 2 7 11 4 21 -4
9 -12 14 -17 11 -6 -4 -6 1 1 13 8 16 6 25 -10 42 -13 14 -15 21 -7 21 7 0 4
6 -7 12 -11 6 -28 20 -37 31 -10 11 -22 16 -29 11 -8 -4 -9 -3 -5 4 4 7 2 13
-3 13 -6 1 -15 3 -21 4 -5 1 -13 3 -16 4 -4 0 0 9 7 18 12 15 12 16 -1 8 -10
-5 -12 -5 -5 3 6 5 19 12 30 14 11 2 19 10 17 18 -3 11 0 11 12 0 12 -9 16 -9
16 -1 0 7 5 9 12 5 6 -4 8 -3 4 4 -3 6 2 15 11 21 10 6 14 11 9 11 -5 0 -1 10
10 22 13 14 14 19 4 14 -12 -6 -12 -5 1 6 9 7 14 19 11 27 -3 10 0 11 9 5 12
-7 12 -5 0 9 -9 12 -10 17 -2 17 7 0 9 5 5 12 -4 6 -6 28 -6 50 1 24 -3 38
-10 38 -9 0 -9 3 0 12 15 15 16 31 0 22 -8 -5 -9 -2 -5 9 4 10 2 16 -6 14 -7
-1 -11 6 -11 15 1 10 -3 15 -8 12 -5 -3 -12 3 -15 15 -3 12 -12 21 -20 21 -8
0 -11 5 -7 12 4 6 3 8 -4 4 -6 -3 -17 1 -26 10 -9 8 -20 13 -25 10 -5 -3 -14
1 -21 10 -7 8 -19 13 -27 10 -7 -3 -13 0 -13 6 0 6 -3 8 -6 5 -4 -3 -16 -2
-27 4 -15 9 -18 8 -11 -3 6 -10 5 -11 -7 -1 -12 10 -18 10 -29 0 -10 -10 -12
-9 -8 3 4 11 -2 15 -18 15 -13 0 -24 -3 -24 -7 0 -7 -47 -1 -62 8 -4 3 -8 0
-8 -5 0 -6 5 -11 12 -11 6 0 8 -3 5 -6 -4 -4 -13 -1 -22 6 -9 7 -18 10 -22 7
-3 -4 -14 -2 -24 4 -14 7 -19 6 -19 -3 0 -10 -2 -10 -9 0 -7 11 -9 11 -14 -2
-4 -9 -12 -16 -19 -15 -10 0 -10 2 0 6 23 9 12 23 -12 13 -15 -5 -27 -5 -35 3
-8 8 -11 8 -11 0 0 -11 -43 -9 -62 3 -4 3 -8 0 -8 -5 0 -6 5 -11 12 -11 6 0 8
-3 5 -6 -4 -4 -13 -1 -22 6 -9 7 -18 10 -22 7 -3 -4 -14 -2 -24 4 -14 7 -19 6
-19 -3 0 -10 -2 -10 -9 0 -7 11 -9 11 -14 -2 -4 -9 -12 -16 -19 -15 -10 0 -10
2 0 6 23 9 12 23 -12 13 -15 -5 -27 -5 -35 3 -8 8 -11 8 -11 0z m362 -196 c-8
-9 -3 -12 19 -12 22 -1 28 3 24 13 -4 12 -3 12 9 3 8 -7 23 -12 33 -11 37 4
54 0 47 -12 -4 -7 -3 -8 5 -4 6 4 8 13 4 19 -4 7 2 5 12 -3 17 -14 18 -13 12
4 -6 16 -5 17 8 6 8 -7 24 -10 35 -7 11 3 18 1 15 -3 -3 -5 3 -13 12 -19 11
-6 13 -11 5 -11 -9 0 -11 -7 -7 -21 6 -16 4 -20 -6 -13 -11 6 -12 5 -2 -8 7
-8 10 -18 6 -21 -3 -4 0 -14 8 -24 9 -11 10 -14 2 -9 -9 5 -13 -1 -13 -19 0
-18 4 -24 13 -19 9 5 9 4 -1 -7 -7 -7 -23 -14 -35 -14 -13 -1 -28 -5 -35 -9
-7 -4 -12 -4 -12 1 0 4 -13 8 -30 8 -16 0 -30 -4 -30 -8 0 -5 -6 -5 -12 -1
-18 11 -62 11 -70 -1 -5 -6 -8 -5 -8 2 0 7 -7 10 -17 6 -11 -4 -14 -3 -9 6 4
6 2 19 -6 28 -9 12 -9 15 0 9 6 -4 12 -3 12 3 0 5 -4 12 -10 16 -13 8 0 36 14
29 6 -3 2 2 -8 10 -11 9 -14 16 -8 16 10 0 10 5 1 23 -12 21 -11 21 6 7 17
-14 18 -14 6 8 -10 18 -10 27 0 38 6 8 14 14 16 14 3 0 1 -6 -5 -13z m61 -401
c-4 -7 -2 -7 8 1 17 14 91 15 83 1 -3 -4 6 -4 20 2 16 6 27 6 31 0 4 -6 12
-10 18 -9 9 0 9 2 0 6 -7 2 -13 10 -13 16 0 17 23 -9 26 -30 2 -10 -2 -21 -9
-25 -9 -6 -9 -8 1 -8 7 0 10 -5 7 -10 -4 -6 -1 -18 7 -27 9 -12 9 -15 1 -9 -9
5 -13 -1 -13 -19 0 -15 4 -24 10 -20 6 3 7 -1 4 -9 -3 -9 -11 -13 -18 -9 -6 4
-6 0 2 -9 17 -22 -3 -35 -25 -16 -12 9 -15 9 -9 1 4 -8 2 -13 -6 -13 -8 0 -20
6 -27 13 -11 10 -13 10 -7 0 4 -8 2 -13 -6 -13 -8 0 -20 6 -27 13 -11 10 -13
10 -7 0 4 -7 3 -13 -1 -13 -5 0 -15 6 -22 13 -11 10 -12 9 -7 -1 6 -9 1 -11
-18 -8 -14 3 -31 8 -38 12 -8 5 -7 0 2 -11 14 -17 14 -18 -7 -6 -13 6 -23 8
-23 4 0 -4 -6 2 -14 13 -13 16 -13 21 0 36 12 12 12 18 3 24 -8 5 -10 3 -4 -6
5 -8 4 -11 -2 -7 -14 9 -4 58 11 51 6 -3 2 2 -8 10 -13 10 -15 16 -7 16 11 0
11 3 0 17 -12 15 -12 16 5 10 16 -6 17 -5 7 7 -10 12 -8 16 10 21 14 5 25 2
30 -6 8 -13 13 -6 10 13 0 4 6 5 14 2 8 -4 12 -11 8 -18z m164 -362 c-3 -3
-12 -4 -19 -1 -8 3 -5 6 6 6 11 1 17 -2 13 -5z"/>
<path d="M1180 1692 c0 -5 -16 -8 -37 -5 -28 3 -34 1 -23 -6 11 -8 12 -11 2
-11 -7 0 -10 -4 -7 -10 3 -5 2 -10 -4 -10 -7 0 -7 -8 -1 -25 7 -18 6 -25 -3
-25 -7 0 -8 -3 -2 -8 12 -8 14 -72 2 -72 -5 0 -2 -6 6 -14 8 -8 27 -15 43 -15
16 0 40 -2 52 -5 19 -4 23 -2 18 11 -5 13 -4 14 9 3 8 -7 24 -10 35 -7 11 3
20 1 20 -5 0 -5 4 -7 8 -4 5 3 9 -8 9 -24 0 -16 -3 -27 -7 -25 -4 2 -7 -2 -7
-10 0 -8 3 -12 7 -10 9 6 5 -108 -5 -124 -5 -9 -4 -12 3 -7 8 4 10 -3 7 -25
-2 -17 1 -42 6 -56 8 -23 8 -24 -6 -13 -14 11 -15 10 -7 -11 4 -13 7 -35 6
-49 -1 -14 3 -36 8 -49 8 -22 7 -23 -9 -10 -12 10 -15 10 -9 1 12 -21 14 -106
2 -114 -7 -5 -6 -8 3 -8 11 0 11 -3 0 -17 -12 -15 -12 -16 1 -8 12 6 13 5 2
-6 -10 -11 -16 -11 -33 -1 -12 8 -18 9 -14 3 9 -15 -18 -14 -34 2 -11 10 -13
10 -7 0 4 -8 2 -13 -6 -13 -8 0 -20 6 -27 13 -11 10 -12 9 -6 -2 6 -11 4 -13
-8 -8 -10 3 -17 2 -17 -4 0 -6 -5 -7 -10 -4 -6 4 -8 12 -4 18 3 7 -2 3 -10 -7
-14 -18 -22 -64 -16 -91 1 -5 2 -31 2 -57 l0 -48 298 0 298 0 4 24 c3 13 1 31
-4 40 -5 9 -5 16 0 16 5 0 9 6 9 14 0 8 -7 12 -16 9 -12 -3 -12 -2 2 7 18 11
25 36 7 25 -7 -4 -7 2 -1 18 8 20 6 29 -11 44 -12 10 -18 12 -14 6 9 -17 -6
-17 -23 0 -11 10 -13 10 -7 0 4 -8 1 -13 -8 -13 -9 0 -16 5 -16 11 0 5 -5 7
-10 4 -6 -4 -7 -12 -3 -18 4 -7 -6 -4 -21 7 -24 15 -28 16 -23 3 4 -11 2 -14
-9 -10 -7 3 -14 10 -14 17 0 6 -4 5 -9 -3 -9 -14 -31 -7 -31 10 0 6 6 7 13 3
7 -5 7 -1 -2 10 -13 15 -13 19 0 27 10 6 10 9 2 9 -7 0 -13 7 -13 16 0 9 5 12
13 8 7 -5 7 -1 -2 10 -12 14 -12 19 -2 26 11 6 11 9 0 13 -11 3 -11 7 -2 17 9
9 9 17 0 30 -8 14 -7 23 4 36 9 11 9 15 2 10 -8 -4 -13 -1 -13 9 0 10 5 13 13
9 7 -5 7 -1 -2 10 -12 14 -12 19 -2 26 11 6 11 8 0 12 -11 4 -12 8 -2 20 10
11 10 17 1 26 -10 10 -10 17 0 33 8 12 9 18 3 14 -6 -3 -11 1 -11 10 0 10 5
13 13 9 7 -5 7 -1 -2 10 -12 14 -12 19 -2 26 11 6 11 8 0 12 -11 4 -12 8 -2
20 10 11 10 17 1 26 -10 10 -10 17 0 33 8 12 9 18 3 14 -6 -3 -11 1 -11 10 0
10 5 13 13 9 7 -5 7 -1 -2 10 -12 14 -12 19 -2 26 11 6 11 8 0 12 -11 4 -12 8
-2 20 10 11 10 17 1 26 -10 10 -10 17 0 33 9 14 10 19 2 14 -8 -5 -11 1 -9 17
4 27 -19 57 -39 50 -7 -2 -9 -8 -6 -14 4 -5 -5 -2 -20 7 -14 10 -26 13 -26 7
0 -10 -44 -7 -62 4 -4 3 -8 0 -8 -5 0 -6 5 -11 12 -11 6 0 8 -3 5 -6 -4 -4
-13 -1 -21 5 -8 7 -19 10 -24 8 -4 -3 -14 -2 -22 3 -8 5 -22 5 -32 -1 -12 -6
-18 -6 -18 0 0 6 -7 8 -15 5 -8 -4 -12 -11 -9 -16 4 -6 -5 -2 -20 7 -14 10
-26 13 -26 7z"/>
<path d="M1843 1686 c7 -19 -9 -22 -17 -3 -3 6 -3 0 -1 -16 2 -18 0 -25 -7
-21 -6 4 -8 1 -6 -7 3 -8 11 -13 18 -11 11 3 11 0 1 -12 -7 -8 -9 -21 -5 -27
4 -8 3 -9 -4 -5 -19 11 -14 -5 6 -21 9 -8 12 -12 5 -9 -6 4 -14 2 -18 -4 -3
-5 -2 -10 4 -10 6 0 8 -7 4 -16 -4 -10 1 -17 16 -21 11 -3 18 -10 15 -15 -4
-6 0 -7 12 -1 20 9 50 9 97 0 24 -5 28 -3 22 10 -5 14 -2 13 16 -3 12 -10 19
-13 15 -6 -4 6 -2 12 3 12 6 0 11 -6 11 -12 0 -8 7 -5 15 6 8 11 15 14 15 8 0
-13 26 -17 33 -4 2 4 2 1 0 -7 -2 -8 1 -18 8 -21 8 -6 8 -13 -1 -30 -8 -15 -8
-20 -1 -16 6 4 11 3 11 -3 0 -5 -5 -13 -11 -17 -8 -5 -8 -9 1 -14 9 -6 9 -12
0 -30 -8 -15 -8 -20 -1 -16 6 4 11 3 11 -3 0 -5 -5 -13 -11 -17 -8 -5 -8 -9 1
-14 9 -6 9 -12 0 -30 -8 -15 -8 -20 -1 -16 6 4 11 3 11 -3 0 -5 -5 -13 -11
-17 -8 -5 -8 -9 1 -14 9 -6 9 -12 0 -30 -10 -18 -9 -21 1 -15 9 6 10 3 6 -10
-4 -9 -2 -25 5 -33 10 -12 10 -14 1 -8 -8 4 -13 2 -13 -4 0 -6 -5 -8 -12 -4
-7 4 -8 3 -4 -5 4 -6 12 -9 17 -6 5 4 9 2 9 -4 0 -5 -5 -13 -10 -16 -6 -4 -7
-12 -3 -18 12 -20 12 -37 0 -37 -8 0 -7 -3 2 -9 9 -6 10 -11 2 -15 -6 -4 -11
-13 -11 -19 0 -7 4 -6 10 3 8 13 10 13 10 -2 0 -9 -5 -20 -10 -23 -6 -4 -7
-12 -3 -18 12 -20 12 -37 0 -37 -8 0 -7 -3 2 -9 9 -6 10 -11 2 -15 -6 -4 -11
-13 -11 -19 0 -7 4 -6 10 3 9 13 10 13 10 0 0 -9 -6 -22 -12 -28 -10 -10 -10
-15 1 -21 10 -7 11 -13 1 -31 -8 -15 -8 -20 -1 -16 15 10 14 -7 -1 -22 -9 -9
-9 -12 1 -12 8 0 11 -6 7 -15 -5 -13 10 -15 99 -15 89 0 106 3 113 18 11 20 5
45 -9 36 -14 -8 -11 3 7 20 8 9 11 16 6 16 -5 0 -9 11 -9 25 0 14 5 25 11 25
7 0 6 3 -2 9 -7 4 -12 12 -11 17 1 5 0 11 -1 14 -7 18 -7 39 0 35 4 -3 11 2
14 11 3 8 2 13 -3 10 -5 -3 -12 1 -15 10 -3 8 -2 13 3 10 5 -3 12 1 15 10 3 8
2 13 -3 10 -5 -3 -12 1 -15 10 -3 8 -2 13 3 10 5 -3 12 1 15 10 3 8 2 13 -3
10 -5 -3 -12 1 -15 10 -3 8 -2 13 3 10 5 -3 11 0 13 7 7 17 -2 38 -13 31 -14
-8 -11 3 7 20 8 9 11 16 6 16 -5 0 -9 11 -9 25 0 14 5 25 11 25 7 0 6 3 -2 9
-7 4 -12 12 -11 17 1 5 0 11 -1 14 -7 18 -7 39 0 35 4 -3 11 2 14 11 3 8 2 13
-3 10 -5 -3 -12 1 -15 10 -3 8 -2 13 3 10 5 -3 12 1 15 10 3 8 2 13 -3 10 -5
-3 -12 1 -15 10 -3 8 -2 13 3 10 5 -3 12 1 15 10 3 8 2 13 -3 10 -5 -3 -12 1
-15 10 -3 8 -2 13 3 9 14 -8 20 18 9 39 -7 13 -6 21 3 27 10 6 11 9 2 9 -18 0
-16 14 7 40 18 21 20 22 21 4 0 -11 3 -13 6 -6 2 6 9 12 14 12 6 0 8 -3 6 -8
-3 -4 8 -7 24 -7 22 -1 28 3 24 13 -4 12 -2 12 8 3 8 -6 38 -10 70 -8 31 2 54
1 52 -3 -2 -4 2 -7 10 -7 8 0 14 3 13 6 -2 18 3 24 11 12 5 -8 9 16 9 63 0 52
-3 74 -10 70 -7 -5 -8 -2 -2 7 12 20 14 38 3 45 -5 3 -9 0 -9 -6 0 -6 -7 -4
-16 5 -12 12 -19 13 -24 5 -8 -12 -12 -12 -47 1 -14 5 -23 5 -23 -1 0 -6 5
-10 12 -10 6 0 8 -3 5 -6 -4 -4 -13 -1 -22 6 -9 7 -18 10 -22 7 -3 -4 -14 -2
-24 4 -14 7 -19 6 -19 -3 0 -10 -2 -10 -9 0 -7 11 -9 11 -14 -2 -4 -9 -12 -16
-19 -15 -10 0 -10 2 0 6 23 9 12 23 -12 13 -15 -5 -27 -5 -35 3 -8 8 -11 8
-11 0 0 -7 -12 -9 -31 -6 -21 3 -29 1 -25 -6 4 -7 1 -8 -8 -5 -9 3 -14 9 -12
13 3 4 -4 7 -15 7 -10 0 -19 -3 -19 -6 0 -3 -11 -6 -25 -6 -14 -1 -23 2 -20 6
5 8 -32 6 -65 -5 -13 -4 -20 -3 -17 2 3 5 -3 9 -14 9 -10 0 -19 -3 -19 -6 0
-3 -11 -6 -25 -6 -14 -1 -23 1 -21 5 2 3 -14 6 -35 6 -29 0 -38 -3 -34 -14 5
-11 3 -12 -10 -1 -9 7 -18 10 -22 7 -3 -4 -15 -1 -26 5 -17 9 -19 8 -14 -6z"/>
</g>
</svg>
