<svg width="112" height="50" viewBox="0 0 112 50" fill="none" xmlns="http://www.w3.org/2000/svg">
<path d="M111.802 8.33334V16.6667H99.6372V50H90.634V16.6667H78.4689V8.33334H111.802Z" fill="white"/>
<path d="M73.5925 0H65.2592V8.33333H73.5925V0Z" fill="white"/>
<path d="M65.2552 41.6667V8.33334H47.9227V16.6667H56.256V41.6667H47.9227V50H73.5885V41.6667H65.2552Z" fill="white"/>
<path d="M30.8971 29.7608V28.5646C35.6818 27.3923 37.5598 23.9633 37.5598 19.3421C37.5598 12.6834 32.0494 8.32935 22.9705 8.32935H0V16.6667H8.33333V41.6667H0V50H22.9705C32.0494 50 37.5598 45.6419 37.5598 38.9872C37.5598 34.362 35.6619 30.933 30.8971 29.7608ZM28.2217 41.6667H17.3365V33.3333H28.2217V41.6667ZM28.2217 25H17.3365V16.6667H28.2217V25Z" fill="white"/>
</svg>
