<svg width="188" height="50" viewBox="0 0 188 50" fill="none" xmlns="http://www.w3.org/2000/svg">
<path d="M40.173 12.3454C41.3891 11.1262 42.1416 9.44383 42.1416 7.5851C42.1416 3.86264 39.1237 0.844696 35.4012 0.844696C33.0478 0.844696 30.9787 2.05287 29.7731 3.88062C29.4528 4.2014 2.62055 37.2729 2.36972 37.6531C1.15355 38.8723 0.401062 40.5551 0.401062 42.4129C0.401062 46.1358 3.419 49.1538 7.14147 49.1538C9.49486 49.1538 11.564 47.9461 12.7696 46.1178C13.0899 45.7971 39.9221 12.7251 40.173 12.3454Z" fill="white"/>
<path d="M55.6984 28.0393C56.9181 26.8192 57.6721 25.1348 57.6721 23.2736C57.6721 19.5511 54.6542 16.5332 50.9317 16.5332C48.5773 16.5332 46.5072 17.7423 45.3015 19.5716C44.9787 19.8949 30.8858 37.2665 30.6335 37.6493C29.4138 38.8695 28.6599 40.5538 28.6599 42.4145C28.6599 46.1375 31.6778 49.1555 35.4003 49.1555C37.7547 49.1555 39.8248 47.9463 41.0299 46.117C41.3527 45.7942 55.4461 28.4221 55.6984 28.0393Z" fill="white"/>
<path d="M70.4012 7.5851C70.4012 11.3081 67.3832 14.3255 63.6608 14.3255C59.9378 14.3255 56.9204 11.3081 56.9204 7.5851C56.9204 3.86264 59.9378 0.844696 63.6608 0.844696C67.3832 0.844696 70.4012 3.86264 70.4012 7.5851Z" fill="white"/>
<path d="M13.8819 7.5851C13.8819 11.3081 10.8639 14.3255 7.14147 14.3255C3.419 14.3255 0.401062 11.3081 0.401062 7.5851C0.401062 3.86264 3.419 0.844696 7.14147 0.844696C10.8639 0.844696 13.8819 3.86264 13.8819 7.5851Z" fill="white"/>
<path d="M101.321 12.2C103.695 12.2 105.748 12.6533 107.481 13.56C109.215 14.44 110.681 15.7467 111.881 17.48L109.001 20.24C107.988 18.6933 106.841 17.5867 105.561 16.92C104.308 16.2267 102.815 15.88 101.081 15.88C99.8012 15.88 98.7479 16.0533 97.9212 16.4C97.0945 16.7467 96.4812 17.2133 96.0812 17.8C95.7079 18.36 95.5212 19 95.5212 19.72C95.5212 20.5467 95.8012 21.2667 96.3612 21.88C96.9479 22.4933 98.0279 22.9733 99.6012 23.32L104.961 24.52C107.521 25.08 109.335 25.9333 110.401 27.08C111.468 28.2267 112.001 29.68 112.001 31.44C112.001 33.0667 111.561 34.48 110.681 35.68C109.801 36.88 108.575 37.8 107.001 38.44C105.455 39.08 103.628 39.4 101.521 39.4C99.6545 39.4 97.9745 39.16 96.4812 38.68C94.9879 38.2 93.6812 37.5467 92.5612 36.72C91.4412 35.8933 90.5212 34.9467 89.8012 33.88L92.7612 30.92C93.3212 31.8533 94.0279 32.6933 94.8812 33.44C95.7345 34.16 96.7212 34.72 97.8412 35.12C98.9879 35.52 100.255 35.72 101.641 35.72C102.868 35.72 103.921 35.5733 104.801 35.28C105.708 34.9867 106.388 34.56 106.841 34C107.321 33.4133 107.561 32.72 107.561 31.92C107.561 31.1467 107.295 30.4667 106.761 29.88C106.255 29.2933 105.295 28.84 103.881 28.52L98.0812 27.2C96.4812 26.8533 95.1612 26.36 94.1212 25.72C93.0812 25.08 92.3079 24.3067 91.8012 23.4C91.2945 22.4667 91.0412 21.4267 91.0412 20.28C91.0412 18.7867 91.4412 17.44 92.2412 16.24C93.0679 15.0133 94.2545 14.04 95.8012 13.32C97.3479 12.5733 99.1879 12.2 101.321 12.2ZM123.225 13.12V33C123.225 33.9867 123.479 34.7067 123.985 35.16C124.519 35.6133 125.225 35.84 126.105 35.84C126.825 35.84 127.452 35.7333 127.985 35.52C128.519 35.28 129.012 34.96 129.465 34.56L130.425 37.68C129.812 38.2133 129.052 38.64 128.145 38.96C127.265 39.2533 126.279 39.4 125.185 39.4C124.039 39.4 122.985 39.2133 122.025 38.84C121.065 38.4667 120.319 37.8667 119.785 37.04C119.252 36.1867 118.972 35.08 118.945 33.72V14.32L123.225 13.12ZM130.105 19V22.36H115.105V19H130.105ZM146.016 26.16C146.016 24.8267 145.642 23.8 144.896 23.08C144.176 22.3333 143.176 21.96 141.896 21.96C140.696 21.96 139.669 22.24 138.816 22.8C137.962 23.36 137.336 24.2667 136.936 25.52L133.336 24C133.842 22.3733 134.829 21.0667 136.296 20.08C137.789 19.0933 139.709 18.6 142.056 18.6C143.656 18.6 145.069 18.8667 146.296 19.4C147.522 19.9067 148.482 20.68 149.176 21.72C149.896 22.76 150.256 24.0933 150.256 25.72V34.64C150.256 35.6267 150.749 36.12 151.736 36.12C152.216 36.12 152.682 36.0533 153.136 35.92L152.896 38.88C152.282 39.1733 151.509 39.32 150.576 39.32C149.722 39.32 148.949 39.1733 148.256 38.88C147.589 38.56 147.056 38.0933 146.656 37.48C146.282 36.84 146.096 36.0533 146.096 35.12V34.84L146.976 34.8C146.736 35.84 146.242 36.7067 145.496 37.4C144.749 38.0667 143.882 38.5733 142.896 38.92C141.909 39.24 140.909 39.4 139.896 39.4C138.642 39.4 137.509 39.2 136.496 38.8C135.509 38.4 134.722 37.8 134.136 37C133.576 36.1733 133.296 35.16 133.296 33.96C133.296 32.4667 133.776 31.24 134.736 30.28C135.722 29.32 137.109 28.6667 138.896 28.32L146.656 26.8L146.616 29.8L140.976 30.96C139.856 31.1733 139.016 31.48 138.456 31.88C137.896 32.28 137.616 32.8667 137.616 33.64C137.616 34.3867 137.896 34.9867 138.456 35.44C139.042 35.8667 139.816 36.08 140.776 36.08C141.442 36.08 142.082 36 142.696 35.84C143.336 35.68 143.909 35.4267 144.416 35.08C144.922 34.7067 145.309 34.24 145.576 33.68C145.869 33.0933 146.016 32.4 146.016 31.6V26.16ZM157.268 39V19H160.908L161.308 22.6C161.841 21.2933 162.628 20.3067 163.668 19.64C164.735 18.9467 166.041 18.6 167.588 18.6C167.988 18.6 168.388 18.64 168.788 18.72C169.188 18.7733 169.521 18.8667 169.788 19L169.188 22.76C168.895 22.6533 168.561 22.5733 168.188 22.52C167.841 22.44 167.361 22.4 166.748 22.4C165.921 22.4 165.108 22.6267 164.308 23.08C163.508 23.5067 162.841 24.16 162.308 25.04C161.801 25.92 161.548 27.04 161.548 28.4V39H157.268ZM178.694 13.12V33C178.694 33.9867 178.947 34.7067 179.454 35.16C179.987 35.6133 180.694 35.84 181.574 35.84C182.294 35.84 182.921 35.7333 183.454 35.52C183.987 35.28 184.481 34.96 184.934 34.56L185.894 37.68C185.281 38.2133 184.521 38.64 183.614 38.96C182.734 39.2533 181.747 39.4 180.654 39.4C179.507 39.4 178.454 39.2133 177.494 38.84C176.534 38.4667 175.787 37.8667 175.254 37.04C174.721 36.1867 174.441 35.08 174.414 33.72V14.32L178.694 13.12ZM185.574 19V22.36H170.574V19H185.574Z" fill="white"/>
</svg>
